# xmcd
#
# Track frame offsets:
#	150
#	17890
#	31872
#	45853
#	58317
#	68903
#	80537
#	90873
#	105106
#	117827
#	129984
#	143183
#	154102
#	164398
#	174896
#	186676
#	199484
#	211751
#	224005
#	235857
#
# Disc length: 3309 seconds
#
# Revision: 1
# Processed by: cddbd v1.5.2PL0 Copyright (c) Steve Scherf et al.
# Submitted via: audiograbber 1.83.01
#
DISCID=100ceb14
DTITLE=Various Artist - Juke Joint Jump - A Boogie Woogie Celebration
DYEAR=2008
DGENRE=Boogie Woogie
TTITLE0=Memphis Slim - Panic Street
TTITLE1=Freddie Slack with the Will Bradley Trio - Down the Road a piece
TTITLE2=Curly Weaver - Baby Boogie Woogie
TTITLE3=Charlie Spand - Soon this Morning No. 2
TTITLE4=Meade Lux Lewis, Pete Johnson, The Boogie Woogie Boys, Albert Ammons - 
TTITLE4=Boogie Woogie Prayer Pt.1
TTITLE5=Meade Lux Lewis, Pete Johnson, The Boogie Woogie Boys, Albert Ammons - 
TTITLE5=Boogie Woogie Prayer Pt.2
TTITLE6=Sir Charles Thompson - Mister Boogie
TTITLE7=Red Saunders and his Orchestra - Honky Tonk Train Blues
TTITLE8=Pete Johnson with Big Joe Turner - Roll 'em Pete
TTITLE9=Champion Jack Dupree - Dupree Shake Dance
TTITLE10=Harry James and the Boogie Woogie Trio - Boo Woo
TTITLE11=Albert Ammons - Shout For Joy
TTITLE12=Calvin Frazier - Boogie Woogie
TTITLE13=Adrian Rollini - Honky Tonk Train Blues
TTITLE14=Jimmy Yancy - Old Quaker Blues
TTITLE15=Willie 'Long Time' Smith - I love you Baby Boogie
TTITLE16=Pete Johnson with Calvin Frazier - Boogie Woogie
TTITLE17=Art Tatum - Tatum Pole Boogie
TTITLE18=Charlie Spand - Rock and Rye
TTITLE19=Faber Smith and Jimmy Yancy - East St Louis Blues
EXTD=
EXTT0=
EXTT1=
EXTT2=
EXTT3=
EXTT4=
EXTT5=
EXTT6=
EXTT7=
EXTT8=
EXTT9=
EXTT10=
EXTT11=
EXTT12=
EXTT13=
EXTT14=
EXTT15=
EXTT16=
EXTT17=
EXTT18=
EXTT19=
PLAYORDER=
